<svg xmlns="http://www.w3.org/2000/svg" id="svg5" viewBox="0 0 137.554 166.635" version="1.1">
    <g id="layer1">
        <g id="g974">
            <g id="Layer_3" fill="#fff" fill-opacity="1">
                <g id="g911" fill="#fff" fill-opacity="1">
                    <g id="g909" fill="#fff" fill-opacity="1" transform="translate(.006) scale(.6042)">
                        <path id="path858" fill="#fff" fill-opacity="1" d="M120.55 248.79c-13.95 0-27.85-2.56-41.69-7.68-13.85-5.12-26.22-12.8-37.11-23.05l27.47-33.03c7.63 6.54 16.07 11.88 25.34 16.02 9.26 4.14 18.36 6.21 27.3 6.21 10.02 0 17.49-1.85 22.4-5.56 4.9-3.7 7.36-8.72 7.36-15.04 0-3.27-.71-6.1-2.13-8.5-1.42-2.4-3.49-4.52-6.21-6.38-2.73-1.85-6-3.6-9.81-5.23-3.82-1.64-8.01-3.43-12.59-5.4l-27.79-11.77c-5.45-2.18-10.74-5.01-15.86-8.5-5.12-3.48-9.7-7.57-13.73-12.26-4.04-4.69-7.25-10.14-9.65-16.35-2.4-6.21-3.6-13.24-3.6-21.09 0-8.72 1.85-16.95 5.56-24.69 3.7-7.74 8.94-14.5 15.7-20.27 6.75-5.77 14.77-10.3 24.03-13.57 9.26-3.27 19.46-4.9 30.57-4.9 12.43 0 24.69 2.4 36.79 7.19 12.1 4.8 22.73 11.77 31.88 20.93l-24.52 30.41c-6.98-5.45-13.95-9.65-20.93-12.59-6.98-2.94-14.71-4.41-23.22-4.41-8.29 0-14.88 1.69-19.78 5.07-4.9 3.38-7.36 8.12-7.36 14.22 0 3.27.82 6.05 2.45 8.34 1.63 2.29 3.92 4.36 6.87 6.21 2.94 1.85 6.38 3.6 10.3 5.23 3.92 1.63 8.17 3.43 12.75 5.4l27.47 11.12c13.08 5.23 23.38 12.43 30.9 21.58 7.52 9.16 11.28 21.25 11.28 36.3 0 8.94-1.8 17.39-5.4 25.34-3.6 7.96-8.83 14.93-15.7 20.93-6.87 6-15.32 10.79-25.34 14.39-10.02 3.58-21.36 5.38-34 5.38z" class="st7"/>
                    </g>
                </g>
            </g>
        </g>
    </g>
</svg>